<?xml version="1.0" encoding="utf-8"?>
<svg version="1.1" id="Layer_1" xmlns="http://www.w3.org/2000/svg" xmlns:xlink="http://www.w3.org/1999/xlink" x="0px" y="0px"
	 viewBox="0 0 183.2 183.2" style="enable-background:new 0 0 183.2 183.2;" xml:space="preserve">
<style type="text/css">
	.st0{fill:#C25C1A;}
</style>
<path class="st0" d="M91.6,178.4c-47.8,0-86.8-38.9-86.8-86.8S43.7,4.8,91.6,4.8s86.8,38.9,86.8,86.8S139.4,178.4,91.6,178.4z
	 M91.6,18.1c-40.5,0-73.5,33-73.5,73.5s33,73.5,73.5,73.5s73.5-33,73.5-73.5S132.1,18.1,91.6,18.1z"/>
<g>
	<g>
		<path class="st0" d="M105.7,123.3H93.6V90.2H118v10.6h-12.3V123.3z M104.8,116.1v-14.5c2.3,3,4.9,5.2,7.6,6.7
			c2.8,1.5,5.7,2.3,8.7,2.3c2.5,0,4.8-0.5,6.8-1.4c2.1-1,3.8-2.3,5.3-4c1.5-1.7,2.6-3.7,3.5-6c0.8-2.3,1.2-4.9,1.2-7.6
			c0-2.7-0.4-5.2-1.2-7.5s-1.9-4.4-3.3-6.1c-1.5-1.8-3.2-3.1-5.2-4.1c-2-1-4.2-1.5-6.6-1.5c-3.2,0-6.1,0.8-8.8,2.4
			c-2.7,1.6-4.8,3.8-6.2,6.6l-10.9-8.2c2.1-4.2,5.4-7.6,9.9-10.1c4.5-2.5,9.6-3.8,15.4-3.8c4.5,0,8.6,0.8,12.5,2.5
			c3.8,1.6,7.2,3.9,10,6.8c2.9,2.9,5.1,6.3,6.7,10.1c1.6,3.8,2.4,7.9,2.4,12.3c0,4.9-0.8,9.3-2.4,13.3c-1.6,4-3.8,7.4-6.6,10.3
			c-2.8,2.9-6,5.1-9.7,6.7s-7.6,2.4-11.8,2.4C115.7,123.7,109.9,121.2,104.8,116.1z"/>
	</g>
	<g>
		<path class="st0" d="M60.8,123.7c-4.2,0-8.1-0.8-11.8-2.4c-3.7-1.6-6.9-3.8-9.7-6.7c-2.8-2.9-5-6.3-6.6-10.3
			c-1.6-4-2.4-8.4-2.4-13.3c0-4.4,0.8-8.5,2.4-12.3c1.6-3.8,3.8-7.2,6.7-10.1c2.9-2.9,6.2-5.2,10-6.8c3.8-1.6,8-2.5,12.5-2.5
			c5.8,0,11,1.3,15.4,3.8c4.5,2.5,7.8,5.9,9.9,10.1l-10.9,8.2c-1.4-2.8-3.5-5-6.2-6.6c-2.7-1.6-5.6-2.4-8.8-2.4
			c-2.4,0-4.6,0.5-6.6,1.5c-2,1-3.7,2.4-5.2,4.1c-1.5,1.8-2.6,3.8-3.3,6.1c-0.8,2.3-1.2,4.8-1.2,7.5c0,2.7,0.4,5.3,1.2,7.6
			c0.8,2.3,2,4.3,3.5,6c1.5,1.7,3.3,3,5.3,4c2.1,1,4.3,1.4,6.8,1.4c3,0,5.9-0.8,8.7-2.3c2.8-1.5,5.3-3.8,7.6-6.7v14.5
			C73.3,121.2,67.4,123.7,60.8,123.7z M77.5,100.8H65.2V90.2h24.5v33.1H77.5V100.8z"/>
	</g>
</g>
</svg>
